<svg width="237" height="238" viewBox="0 0 237 238" fill="none" xmlns="http://www.w3.org/2000/svg">
<path d="M225.285 124.509C226.623 124.754 227.64 124.75 228.337 124.498C229.06 124.251 229.522 123.576 229.723 122.475L229.867 121.688L230.654 121.831L228.784 132.062C228.261 134.921 227.336 137.314 226.008 139.24C224.675 141.192 222.657 141.921 219.956 141.427C218.723 141.201 217.685 140.578 216.841 139.556C215.998 138.535 215.446 137.105 215.185 135.269C214.351 137.61 213.322 139.157 212.1 139.909C210.9 140.693 209.434 140.927 207.703 140.61C205.053 140.126 203.396 138.738 202.73 136.448C202.086 134.189 202.042 131.537 202.598 128.494L204.037 120.625L225.285 124.509ZM216.675 130.458C216.478 131.534 216.49 132.579 216.711 133.596C216.953 134.643 217.413 135.54 218.089 136.287C218.792 137.039 219.708 137.519 220.836 137.725C222.016 137.941 223.065 137.766 223.981 137.202C224.924 136.642 225.679 135.845 226.248 134.811C226.838 133.807 227.236 132.741 227.442 131.613C227.61 130.695 227.659 129.688 227.589 128.59L217.358 126.72L216.675 130.458ZM204.083 128.156C203.647 130.543 203.783 132.466 204.493 133.924C205.197 135.408 206.442 136.313 208.225 136.639C210.009 136.965 211.491 136.572 212.67 135.459C213.844 134.373 214.655 132.61 215.101 130.17L215.784 126.432L205.318 124.519C204.72 125.711 204.309 126.923 204.083 128.156Z" fill="#DBB987" fill-opacity="0.6"/>
<path d="M216.05 162.62C217.213 163.325 218.165 163.683 218.906 163.696C219.669 163.722 220.341 163.256 220.921 162.298L221.336 161.613L222.02 162.028L213.192 176.603C212.018 178.541 210.518 178.958 208.693 177.853L206.127 176.299L206.542 175.614C209.165 177.203 211.34 176.572 213.067 173.721L216.921 167.357L208.026 161.969L202.431 171.207L201.062 170.378L206.658 161.14L197.078 155.338L193.451 161.325C192.498 162.899 192.037 164.303 192.068 165.538C192.1 166.773 192.641 168.067 193.692 169.421L193.106 170.001L190.581 166.835C189.689 165.734 189.637 164.533 190.425 163.233L197.575 151.429L216.05 162.62Z" fill="#DBB987" fill-opacity="0.6"/>
<path d="M184.729 175C184.973 175.318 185.07 175.663 185.021 176.037C184.971 176.411 184.788 176.72 184.471 176.963L183.201 177.937C183.851 180.8 184.974 183.686 186.568 186.597C188.158 189.545 190.195 192.638 192.678 195.875C193.506 196.954 194.263 197.634 194.949 197.914C195.651 198.216 196.446 198.026 197.334 197.344L197.81 196.979L198.297 197.613L182.43 209.788L167.334 190.112L165.588 191.451C165.271 191.694 164.925 191.791 164.551 191.742C164.177 191.693 163.869 191.51 163.625 191.192L159.121 185.321L160.549 184.226C162.426 186.146 163.996 187.295 165.259 187.67C166.522 188.046 167.735 187.787 168.898 186.894L179.213 178.981C180.376 178.088 180.94 176.983 180.904 175.666C180.869 174.349 180.166 172.536 178.797 170.225L180.225 169.129L184.729 175ZM170.19 187.92L184.312 206.327L192.563 199.996C189.203 195.617 186.62 191.834 184.815 188.648C182.988 185.479 181.71 182.477 180.98 179.642L170.19 187.92Z" fill="#DBB987" fill-opacity="0.6"/>
<path d="M159.613 218.593C159.929 219.916 160.343 220.845 160.854 221.381C161.372 221.943 162.176 222.094 163.265 221.834L164.043 221.648L164.229 222.426L160.727 223.262C159.768 223.491 159.023 223.531 158.495 223.383C157.946 223.267 157.491 222.91 157.128 222.311C156.766 221.712 156.427 220.751 156.112 219.428L154.626 213.203L150.346 214.224C147.778 214.837 145.392 214.831 143.186 214.206C140.961 213.613 139.518 211.928 138.855 209.153C138.193 206.378 138.718 204.21 140.429 202.65C142.121 201.122 144.25 200.052 146.818 199.439L154.6 197.583L159.613 218.593ZM130.477 203.339C131.437 203.11 132.191 203.053 132.739 203.169C133.268 203.317 133.714 203.691 134.076 204.289C134.438 204.888 134.777 205.849 135.093 207.172L140.106 228.182L136.605 229.018L131.591 208.008C131.275 206.685 130.859 205.743 130.341 205.181C129.829 204.645 129.029 204.507 127.939 204.767L127.161 204.953L126.975 204.174L130.477 203.339ZM147.727 200.662C145.807 201.12 144.385 201.994 143.459 203.284C142.513 204.606 142.276 206.253 142.746 208.225C143.217 210.196 144.169 211.545 145.604 212.272C147.018 213.031 148.685 213.181 150.605 212.723C151.824 212.432 153.013 211.957 154.171 211.297L151.553 200.325C150.221 200.259 148.946 200.371 147.727 200.662Z" fill="#DBB987" fill-opacity="0.6"/>
<path d="M100.576 213.255C101.231 213.072 102.069 213.002 103.09 213.045C104.08 213.11 105.061 213.228 106.033 213.398C108.03 213.747 109.687 214.254 111.006 214.917C112.324 215.581 113.298 216.591 113.928 217.946C114.526 219.323 114.63 221.128 114.239 223.361L113.688 226.513C113.453 227.853 113.465 228.87 113.723 229.565C113.975 230.286 114.653 230.743 115.757 230.936L116.151 231.005L116.013 231.793L112.467 231.172C111.495 231.002 110.795 230.745 110.369 230.399C109.911 230.075 109.634 229.567 109.539 228.873C109.444 228.18 109.513 227.163 109.748 225.824L110.368 222.278C110.662 220.596 110.679 219.259 110.42 218.267C110.134 217.269 109.601 216.526 108.82 216.038C108.039 215.549 106.953 215.183 105.56 214.94C104.667 214.783 103.737 214.688 102.768 214.654C101.799 214.62 100.977 214.679 100.3 214.832L97.8881 228.622L94.3419 228.002L98.8909 201.997L102.437 202.617L100.576 213.255Z" fill="#DBB987" fill-opacity="0.6"/>
<path d="M73.6393 217.228C72.9177 218.381 72.5453 219.328 72.5221 220.068C72.4848 220.832 72.9408 221.51 73.8902 222.105L74.5683 222.529L74.1438 223.207L71.0924 221.297C70.256 220.773 69.7052 220.271 69.4398 219.791C69.1377 219.318 69.0731 218.743 69.246 218.065C69.419 217.387 69.8662 216.471 70.5879 215.318L74.4083 209.215L64.2369 202.848L57.8695 213.02L54.8181 211.109L66.2793 192.801C67.0009 191.648 67.3804 190.69 67.4177 189.927C67.4408 189.186 66.9777 188.519 66.0284 187.925L65.3503 187.5L65.7748 186.822L68.8262 188.732C69.6625 189.256 70.2317 189.754 70.5338 190.226C70.7992 190.707 70.8454 191.286 70.6725 191.964C70.4996 192.643 70.0523 193.558 69.3307 194.711L65.0858 201.492L75.2572 207.859L82.049 197.01L85.1004 198.92L73.6393 217.228Z" fill="#DBB987" fill-opacity="0.6"/>
<path d="M45.0186 163.434C45.7715 164.469 46.2363 165.697 46.4129 167.118C46.5679 168.555 46.0348 170.18 44.8135 171.991L43.2992 174.33L49.8876 183.387L57.916 181.504L58.9748 182.959L31.0373 189.432L30.3314 188.462L42.4605 168.757C43.3191 167.308 43.8131 166.174 43.9424 165.354C44.0502 164.55 43.8256 163.675 43.2687 162.728L43.9156 162.257C44.3058 162.567 44.6735 162.959 45.0186 163.434ZM48.2408 183.843L42.4759 175.918L35.9189 186.623L48.2408 183.843Z" fill="#DBB987" fill-opacity="0.6"/>
<path d="M39.4204 154.892C39.6034 155.588 39.665 156.399 39.605 157.325L38.8699 157.518C38.5227 156.617 38.0031 155.899 37.311 155.364C36.6189 154.829 35.7341 154.4 34.6565 154.076L26.6253 151.845C26.652 153.52 26.2661 155.041 25.4676 156.409C24.6691 157.777 23.2254 158.735 21.1364 159.285C18.0931 160.085 15.7817 159.631 14.2023 157.923C12.6229 156.215 11.5078 154.123 10.8569 151.647L8.31467 141.976L9.08839 141.772L9.19008 142.159C9.47481 143.242 9.98702 143.88 10.7267 144.071C11.4406 144.27 12.4552 144.196 13.7705 143.85L34.6608 138.359L35.576 141.841L25.1309 144.586L26.1173 148.339L34.5353 150.469C36.0405 150.845 37.1594 151.378 37.8922 152.068C38.5991 152.764 39.1085 153.706 39.4204 154.892ZM24.5395 147.844C24.3023 146.941 23.9191 146.008 23.39 145.044L11.7843 148.095C11.7975 149.194 11.9228 150.195 12.1601 151.098C12.377 151.923 12.8268 152.742 13.5093 153.555C14.166 154.375 15.0467 154.999 16.1514 155.425C17.2493 155.826 18.5076 155.84 19.926 155.467C21.3445 155.094 22.4332 154.463 23.1922 153.574C23.9444 152.66 24.4177 151.681 24.6121 150.637C24.7807 149.6 24.7565 148.669 24.5395 147.844Z" fill="#DBB987" fill-opacity="0.6"/>
<path d="M12.4586 94.8587C11.1853 94.3809 10.1834 94.2043 9.45307 94.329C8.69774 94.4444 8.12334 95.0263 7.72988 96.075L7.44884 96.824L6.69983 96.5429L14.7096 75.1962L39.4269 84.4707L38.1622 87.8412L14.9429 79.1288L10.7273 90.3639L33.9465 99.0763L32.6818 102.447L12.4586 94.8587Z" fill="#DBB987" fill-opacity="0.6"/>
<path d="M59.0713 56.7159C58.21 57.6628 57.1012 58.3665 55.7449 58.827C54.3689 59.2696 52.6702 59.0762 50.6489 58.2468L48.0527 57.2368L40.516 65.5216L43.9844 73.0029L42.7731 74.3344L30.7816 48.2844L31.5891 47.3967L53.3406 55.2879C54.9333 55.8356 56.144 56.0898 56.9728 56.0506C57.7818 55.9935 58.5936 55.5965 59.4083 54.8595L60 55.3978C59.7757 55.8426 59.4661 56.282 59.0713 56.7159ZM39.7362 64.0011L46.3309 56.7519L34.5202 52.4966L39.7362 64.0011Z" fill="#DBB987" fill-opacity="0.6"/>
<path d="M64.9323 50.0231C64.3816 50.2932 63.7302 50.4791 62.9781 50.5806L62.5378 49.6828C63.7114 49.0478 64.4765 48.034 64.833 46.6414C65.2135 45.237 65.0095 43.0649 64.2211 40.125C63.4209 37.1612 61.8054 33.2013 59.3747 28.2453C58.7759 27.0243 58.1679 26.2086 57.5509 25.7984C56.9222 25.3643 56.105 25.3938 55.0994 25.887L54.7403 26.0631L54.388 25.3448L72.165 16.626L83.7901 40.3287L80.5579 41.914L69.6374 19.6478L60.6591 24.0512L62.0682 26.9243C64.6046 32.0958 66.2778 36.2947 67.0879 39.5209C67.9102 42.7115 68.0887 45.104 67.6233 46.6985C67.17 48.2574 66.2731 49.3656 64.9323 50.0231Z" fill="#DBB987" fill-opacity="0.6"/>
<path d="M100.632 34.9531C99.6544 35.0857 98.8984 35.0672 98.3641 34.8975C97.8526 34.6977 97.4463 34.2819 97.1453 33.65C96.8443 33.018 96.6024 32.0282 96.4195 30.6806L93.5158 9.27665L97.0832 8.7927L99.9869 30.1966C100.17 31.5443 100.491 32.5233 100.95 33.1338C101.406 33.7178 102.189 33.9345 103.299 33.7839L104.092 33.6764L104.199 34.4691L100.632 34.9531Z" fill="#DBB987" fill-opacity="0.6"/>
<path d="M135.027 24.1922C134.371 24.3705 133.532 24.434 132.511 24.383C131.522 24.3104 130.542 24.1855 129.571 24.008C127.577 23.6435 125.924 23.1244 124.61 22.4505C123.297 21.7766 122.33 20.7596 121.712 19.3994C121.124 18.0179 121.034 16.2122 121.441 13.9825L122.017 10.8347C122.261 9.49688 122.258 8.47961 122.006 7.7829C121.758 7.05996 121.084 6.59778 119.982 6.39636L119.588 6.32442L119.732 5.53747L123.274 6.1849C124.244 6.36234 124.942 6.62539 125.366 6.97403C125.821 7.30124 126.094 7.81192 126.184 8.50608C126.274 9.20025 126.196 10.2162 125.952 11.5541L125.304 15.0954C124.997 16.7742 124.97 18.1111 125.222 19.1059C125.5 20.1056 126.027 20.8526 126.804 21.3471C127.581 21.8416 128.665 22.2159 130.055 22.4701C130.947 22.6331 131.877 22.7354 132.846 22.7769C133.814 22.8184 134.637 22.7655 135.315 22.6183L137.832 8.84656L141.374 9.49399L136.626 35.4636L133.084 34.8161L135.027 24.1922Z" fill="#DBB987" fill-opacity="0.6"/>
<path d="M167.947 50.0481C166.887 49.3792 165.96 48.3999 165.166 47.1103C164.386 45.7981 163.743 43.8943 163.236 41.399L160.83 29.4739L153.784 40.6367L150.74 38.7153L162.268 20.449C162.994 19.2989 163.37 18.3536 163.396 17.6131C163.436 16.8501 162.983 16.1697 162.035 15.5719L161.359 15.1449L161.786 14.4684L164.83 16.3898C165.665 16.9164 166.214 17.4205 166.477 17.9022C166.778 18.3756 166.84 18.9511 166.665 19.6287C166.489 20.3064 166.039 21.2203 165.313 22.3704L161.15 28.9665L172.737 26.3462L173.861 26.0628C174.906 25.8073 175.756 25.6344 176.412 25.544C177.082 25.431 177.789 25.4356 178.532 25.5575C179.275 25.6795 180.007 25.9682 180.729 26.4237L182.42 27.4911L181.886 28.3368C180.939 27.739 180.009 27.3887 179.097 27.2857C178.198 27.1602 176.995 27.268 175.487 27.6091L164.728 30.0422L167.384 43.0708C167.736 44.7118 168.199 46.2021 168.772 47.5417C169.36 48.8587 170.024 49.8297 170.765 50.4548L170.359 51.0975C169.541 50.8961 168.736 50.5463 167.947 50.0481Z" fill="#DBB987" fill-opacity="0.6"/>
<path d="M190.091 73.5712C189.335 72.5389 188.865 71.3123 188.684 69.8916C188.523 68.4551 189.051 66.8288 190.265 65.0126L191.771 62.669L185.15 53.6359L177.128 55.5481L176.064 54.0964L203.978 47.5218L204.687 48.4896L192.63 68.2387C191.777 69.6908 191.287 70.8268 191.161 71.6468C191.056 72.4511 191.284 73.3256 191.844 74.2705L191.199 74.7434C190.807 74.4351 190.438 74.0444 190.091 73.5712ZM186.795 53.1739L192.588 61.0778L199.106 50.3486L186.795 53.1739Z" fill="#DBB987" fill-opacity="0.6"/>
</svg>
