<svg width="20" height="21" viewBox="0 0 20 21" fill="none" xmlns="http://www.w3.org/2000/svg">
<path d="M10 0C4.47708 0 0 4.70094 0 10.5C0 16.2991 4.47708 21 10 21C15.5229 21 20 16.2991 20 10.5C20 4.70094 15.5229 0 10 0ZM13.8458 11.8464C13.8458 11.8464 14.7302 12.763 14.9479 13.1884C14.9542 13.1972 14.9573 13.2059 14.9594 13.2103C15.0479 13.3667 15.0688 13.4881 15.025 13.5789C14.9521 13.7298 14.7021 13.8042 14.6167 13.8108H13.0542C12.9458 13.8108 12.7188 13.7812 12.4437 13.5822C12.2323 13.4269 12.024 13.172 11.8208 12.9237C11.5177 12.5541 11.2552 12.2347 10.9906 12.2347C10.957 12.2346 10.9236 12.2402 10.8917 12.2511C10.6917 12.3189 10.4354 12.6186 10.4354 13.417C10.4354 13.6664 10.2479 13.8097 10.1156 13.8097H9.4C9.15625 13.8097 7.88646 13.72 6.76146 12.4742C5.38437 10.9484 4.14479 7.88812 4.13437 7.85969C4.05625 7.66172 4.21771 7.55562 4.39375 7.55562H5.97187C6.18229 7.55562 6.25104 7.69016 6.29896 7.80937C6.35521 7.94828 6.56146 8.50063 6.9 9.12187C7.44896 10.1347 7.78542 10.5459 8.05521 10.5459C8.1058 10.5453 8.15548 10.5318 8.2 10.5066C8.55208 10.3009 8.48646 8.98297 8.47083 8.70953C8.47083 8.65812 8.46979 8.12 8.28958 7.86187C8.16042 7.67484 7.94062 7.60375 7.80729 7.5775C7.86126 7.49931 7.93236 7.43591 8.01458 7.39266C8.25625 7.26578 8.69167 7.24719 9.12396 7.24719H9.36458C9.83333 7.25375 9.95417 7.28547 10.124 7.33031C10.4677 7.41672 10.475 7.64969 10.4448 8.44703C10.4354 8.67344 10.426 8.92938 10.426 9.23125C10.426 9.29688 10.4229 9.36687 10.4229 9.44125C10.4125 9.84703 10.4 10.3075 10.6729 10.4967C10.7085 10.5202 10.7497 10.5327 10.7917 10.5328C10.8865 10.5328 11.1719 10.5328 11.9448 9.14047C12.1832 8.69231 12.3903 8.22661 12.5646 7.74703C12.5802 7.71859 12.626 7.63109 12.6802 7.59719C12.7202 7.57579 12.7645 7.5649 12.8094 7.56547H14.6646C14.8667 7.56547 15.0052 7.59719 15.0312 7.67922C15.0771 7.80937 15.0229 8.20641 14.176 9.41063L13.7979 9.93453C13.0302 10.9911 13.0302 11.0447 13.8458 11.8464Z" fill="#FFECCF"/>
</svg>
